<svg width="100" height="100" viewBox="0 0 100 100" fill="none" xmlns="http://www.w3.org/2000/svg">
<g clip-path="url(#clip0_8234_4121)">
<path d="M5.40241 6.09872C4.9391 6.30931 4.26518 6.81475 3.8861 7.19382C2.47509 8.68908 2.55933 6.79369 2.55933 35.393V61.2966H1.99072C1.19044 61.2966 0.116388 61.9916 -0.389048 62.8129C-0.704946 63.3394 -0.810246 63.887 -0.810246 65.1085C-0.810246 70.0575 2.76993 74.6486 7.80324 76.1228C8.83517 76.4176 12.7312 76.4597 46.3638 76.4597C79.9964 76.4597 83.8925 76.4176 84.9244 76.1228C89.9578 74.6486 93.5379 70.0575 93.5379 65.1085C93.5379 63.887 93.4326 63.3394 93.1167 62.8129C92.6113 61.9916 91.5373 61.2966 90.758 61.2966H90.1684V35.3298C90.1684 10.5002 90.1473 9.34193 89.7682 8.54166C89.5576 8.07834 89.0522 7.40443 88.6731 7.02534C87.1568 5.59328 90.5685 5.69858 46.3217 5.69858C7.74006 5.69858 6.22375 5.71964 5.40241 6.09872ZM85.5352 9.29981C86.862 9.76313 86.7988 8.4153 86.7988 36.1301V61.2966H71.2777H55.7776L54.1349 62.2443L52.4923 63.192H46.3638H40.2354L38.6138 62.2443L36.9922 61.2966H21.4711H5.92891V36.1511C5.92891 17.9554 5.99209 10.8372 6.16057 10.3317C6.62389 9.00497 4.01246 9.08921 46.2796 9.06815C74.5209 9.06815 85.0298 9.13133 85.5352 9.29981ZM37.2028 65.656L38.8876 66.6669H46.3638H53.8401L55.5249 65.656L57.2097 64.6662H73.6153H90.0209L89.8946 65.8245C89.7261 67.4882 88.9048 69.1309 87.5569 70.4787C86.167 71.8476 84.6928 72.5847 82.6921 72.8795C80.6704 73.1533 12.0573 73.1533 10.0356 72.8795C8.0349 72.5847 6.56071 71.8476 5.17075 70.4787C3.82292 69.1309 3.00159 67.4882 2.83311 65.8245L2.70675 64.6662H19.1124H35.518L37.2028 65.656Z" fill="#00999E"/>
<path d="M44.7252 18.9687C41.3766 19.432 38.7652 20.6745 36.575 22.8648C33.9846 25.4551 32.6789 28.7194 32.6789 32.6576C32.6789 36.659 33.9636 39.8811 36.6592 42.5557C40.787 46.6414 47.1681 47.6733 52.3699 45.0829C53.2965 44.6196 54.2232 44.1352 54.4127 43.9878C54.7497 43.7561 55.234 44.1773 58.6457 47.568C62.4154 51.3166 62.5207 51.4009 63.3842 51.4009C64.5636 51.4009 65.1111 50.8533 65.1111 49.695C65.1111 48.8316 65.0058 48.7052 61.2993 44.9566L57.4874 41.1237L58.2667 39.8601C59.5302 37.7962 60.1199 35.6692 60.141 33.0788C60.141 30.3621 59.8672 29.1195 58.6457 26.5502C57.8455 24.8655 57.4032 24.2758 55.9711 22.8648C52.8332 19.7479 48.9582 18.4211 44.7252 18.9687ZM48.7897 22.8016C50.6219 23.1807 52.0751 24.002 53.5282 25.4762C55.7605 27.7296 56.6029 30.0251 56.4344 33.3736C56.1186 38.8913 51.9066 42.8506 46.3678 42.8506C42.1348 42.8506 38.5336 40.4919 36.9751 36.6379C36.3012 34.9952 36.0696 32.0679 36.4697 30.32C37.2489 27.0136 39.6919 24.2126 42.7245 23.1385C44.8515 22.4015 46.4521 22.2962 48.7897 22.8016Z" fill="#00999E"/>
</g>
<defs>
<clipPath id="clip0_8234_4121">
<rect width="98.9578" height="98.9578" fill="white" transform="translate(0.901672 0.533691)"/>
</clipPath>
</defs>
</svg>
