<svg width="82" height="82" viewBox="0 0 82 82" fill="none" xmlns="http://www.w3.org/2000/svg">
<g clip-path="url(#clip0_8234_4169)">
<path d="M3.73479 1.00811C0.827903 2.71432 0.764709 3.91499 0.764709 40.7566C0.764709 77.851 0.827903 78.9252 3.79798 80.5051C4.68268 80.9474 13.9721 81.2002 32.0453 81.2002H58.9656L60.4822 79.6836C62.4412 77.6614 62.8204 75.5128 62.5676 65.4019C62.378 57.1236 62.3148 56.8708 60.9878 56.6813C59.5343 56.4917 59.5343 56.4917 59.5343 66.0338C59.5343 75.3232 59.4711 75.6392 57.9545 77.0926L56.4379 78.6725H31.7293H7.02083L5.50419 77.0926L3.92437 75.576V40.7566V5.93717L5.50419 4.42054L7.02083 2.84071H31.7293H56.4379L57.9545 4.42054C59.4079 5.81078 59.5343 6.44272 59.5343 11.9405V17.8807L50.0554 39.8087L40.5764 61.7367V68.3088C40.5764 74.249 40.7028 74.8809 41.8402 75.5128C43.736 76.5239 44.8103 75.9552 49.4234 71.5316L53.531 67.6137L65.1585 40.6302C71.6042 25.7798 77.0388 13.7731 77.2916 13.8995C77.5444 14.0891 75.6486 19.1445 73.0577 25.0847C69.0133 34.69 68.5078 36.1435 69.3293 36.965C70.0244 37.6601 70.4667 37.6601 70.9723 37.1546C71.4146 36.7122 73.9424 31.2144 76.7229 24.8319L81.7151 13.2676L80.2617 12.1933C77.1652 9.79195 76.5965 9.03364 77.2284 7.83296C79.061 4.54692 76.6597 0.312981 73.0577 0.312981C70.0876 0.312981 68.6973 1.13449 67.8126 3.40945C67.3703 4.42054 66.4856 5.36843 65.8536 5.55801C65.1585 5.74759 64.2106 6.82188 63.7051 7.95935L62.8204 10.1079L62.7572 8.02254C62.694 5.17886 61.1773 1.82962 59.6607 1.00811C57.8913 0.0602112 5.31462 0.0602112 3.73479 1.00811ZM74.7007 5.05247C74.7007 7.26423 74.0056 7.83296 72.2993 7.07465C71.3514 6.69549 70.4667 6.31633 70.3403 6.18994C70.214 6.12675 70.5931 5.30524 71.1619 4.42054C72.0466 3.09348 72.4257 2.9039 73.4368 3.47264C74.1319 3.8518 74.7007 4.54692 74.7007 5.05247ZM70.6563 9.85515C72.3625 10.6135 73.816 11.3086 73.9424 11.3718C74.4479 11.8141 64.8425 33.1734 64.2106 33.1734C63.8315 33.1734 62.1884 32.6047 60.5454 31.9095L57.6385 30.5825L58.5232 28.5603C61.6197 21.1667 66.6751 9.4128 66.9279 8.97044C67.3071 8.33851 67.1807 8.33851 70.6563 9.85515ZM59.9135 35.1324C61.6197 35.8275 63.0731 36.4595 63.1363 36.5858C63.3259 36.7754 51.5088 64.138 51.1296 64.5804C50.8769 64.77 44.9999 62.3686 44.4312 61.8631C44.052 61.5471 55.9955 33.8685 56.5011 33.8053C56.6906 33.8053 58.2705 34.3741 59.9135 35.1324ZM46.5165 66.3498C47.7804 66.8554 48.7915 67.4241 48.7915 67.4873C48.7915 67.6137 47.654 68.8143 46.2638 70.1414L43.736 72.6059V69.0039C43.736 67.0449 43.8624 65.4019 43.9888 65.4019C44.1152 65.4019 45.2527 65.8443 46.5165 66.3498Z" fill="#00999E"/>
<path d="M17.3224 7.39072C16.2482 8.465 16.3746 14.5315 17.4488 15.4162C18.0176 15.9218 20.9245 16.1114 26.1063 15.985C33.6895 15.7954 33.9422 15.7322 34.1318 14.342C34.3214 12.9517 34.2582 12.9517 27.0542 12.9517H19.7238V11.3719V9.79206H31.7305H43.7372V11.3719C43.7372 12.8253 43.5476 12.9517 40.5143 12.9517C37.5443 12.9517 37.3547 13.0781 37.5443 14.342C37.7338 15.6058 38.1762 15.7954 41.399 15.985C46.1385 16.2378 46.8968 15.6058 46.8968 11.3087C46.8968 8.65458 46.6441 7.83307 45.6962 7.26433C43.8636 6.31644 18.2703 6.44282 17.3224 7.39072Z" fill="#00999E"/>
<path d="M11.0655 21.5458C10.8759 22.0513 11.0023 22.8097 11.3183 23.1256C11.6343 23.4416 19.9757 23.6312 32.1088 23.568C51.7619 23.3784 52.2674 23.3784 52.2674 22.1145C52.2674 20.8507 51.7619 20.8507 31.8561 20.6611C13.7828 20.5347 11.4447 20.5979 11.0655 21.5458Z" fill="#00999E"/>
<path d="M11.0655 29.1293C10.8759 29.6348 11.0023 30.3931 11.3183 30.7091C11.6343 31.0251 19.9757 31.2147 32.1088 31.1515C51.7619 30.9619 52.2674 30.9619 52.2674 29.698C52.2674 28.4342 51.7619 28.4342 31.8561 28.2446C13.7828 28.1182 11.4447 28.1814 11.0655 29.1293Z" fill="#00999E"/>
<path d="M11.5694 36.2697C11.0639 36.5856 10.8743 37.2808 11.0639 37.8495C11.443 38.7342 13.3388 38.8606 27.3045 38.8606C41.2702 38.8606 43.166 38.7342 43.5451 37.8495C43.7347 37.2808 43.5451 36.5856 43.0396 36.2697C41.9021 35.5746 12.7069 35.5746 11.5694 36.2697Z" fill="#00999E"/>
<path d="M10.8766 45.1802C10.8766 46.3809 11.319 46.4441 20.0397 46.4441C28.7603 46.4441 29.2027 46.3809 29.2027 45.1802C29.2027 43.9796 28.7603 43.9164 20.0397 43.9164C11.319 43.9164 10.8766 43.9796 10.8766 45.1802Z" fill="#00999E"/>
<path d="M12.7055 65.0859C10.9993 65.9706 9.35625 68.8775 9.92498 69.8886C10.6201 70.9629 12.2631 70.4573 13.527 68.8775C14.2221 67.9928 15.4228 67.2977 16.2443 67.2977C17.0658 67.2977 18.8352 67.9928 20.0991 68.8775C23.3851 71.1525 27.1135 71.0261 29.3885 68.6879C32.6745 65.2755 30.3996 63.0005 27.0503 66.3498C25.3441 68.056 24.5858 67.9928 20.9838 65.5915C18.5192 63.9484 15.17 63.7589 12.7055 65.0859Z" fill="#00999E"/>
</g>
<defs>
<clipPath id="clip0_8234_4169">
<rect width="80.8872" height="80.8872" fill="white" transform="translate(0.778687 0.3125)"/>
</clipPath>
</defs>
</svg>
