<svg width="88" height="88" viewBox="0 0 88 88" fill="none" xmlns="http://www.w3.org/2000/svg">
<g clip-path="url(#clip0_8234_4125)">
<path d="M57.8072 1.11836C57.1282 1.6276 57.1282 2.15382 57.7563 3.80037C58.0788 4.63213 58.3504 5.34507 58.3504 5.37902C58.3504 5.396 57.5017 5.15835 56.4662 4.83583C52.0019 3.49482 48.1825 3.00256 43.175 3.13835C39.3726 3.2402 36.9453 3.5797 33.4994 4.53028C25.029 6.85583 17.1187 12.2029 12.0263 19.0267C11.1606 20.181 11.0757 21.0297 11.7717 21.5729C12.6883 22.3028 13.0618 22.0992 14.7932 19.9943C20.2081 13.4251 27.2866 8.90977 35.2478 6.92372C38.8634 6.00709 40.0007 5.88826 44.6009 5.90524C48.539 5.90524 49.1331 5.95616 51.1531 6.34658C53.4617 6.8049 57.1622 7.82339 57.1622 7.99313C57.1622 8.06103 56.5002 8.36658 55.7024 8.6891C54.565 9.14742 54.1916 9.38506 53.9879 9.75851C53.5466 10.6242 54.1407 11.7446 55.0403 11.7446C55.6345 11.7446 61.3889 9.40204 61.8812 8.97767C62.1188 8.757 62.2546 8.43448 62.2546 8.09498C62.2546 7.29717 59.963 1.72945 59.4368 1.25416C58.9615 0.846764 58.2486 0.778864 57.8072 1.11836Z" fill="#00999E"/>
<path d="M66.6914 11.167C65.9615 12.0836 66.1652 12.4571 68.27 14.1885C75.7559 20.3673 80.3051 28.2266 82.0535 37.9701C82.2912 39.2942 82.3591 40.5842 82.376 43.8264C82.376 47.442 82.3251 48.2738 81.9856 50.175C81.6122 52.2289 80.8992 54.9618 80.424 56.1331L80.2203 56.6424L79.5922 55.1316C79.1169 53.9943 78.8623 53.5699 78.4888 53.3832C77.6571 52.9419 76.5198 53.5529 76.5198 54.4356C76.5198 55.0297 78.8623 60.7842 79.2866 61.2765C79.5073 61.5141 79.8298 61.6499 80.1693 61.6499C80.9671 61.6499 86.5349 59.3583 87.0102 58.8321C87.6722 58.0852 87.4175 57.1007 86.4839 56.7442C86.0086 56.5575 85.6352 56.6424 84.0396 57.3044C83.4455 57.542 82.9532 57.7457 82.9192 57.7457C82.8853 57.7457 83.106 56.897 83.4285 55.8615C84.7695 51.3972 85.2618 47.5778 85.126 42.5703C85.0241 38.7679 84.6846 36.3405 83.734 32.8947C81.4085 24.4243 76.0614 16.514 69.2376 11.4216C68.0833 10.5559 67.2346 10.471 66.6914 11.167Z" fill="#00999E"/>
<path d="M39.9319 13.6458C39.6603 13.7476 39.202 14.0192 38.9474 14.2738C38.0308 15.1056 37.9119 15.53 37.8101 18.3987C37.7252 21.0467 37.7252 21.0467 37.199 21.6918C36.4012 22.6933 35.875 22.9988 34.8735 23.0837C33.4136 23.2025 32.8704 22.914 30.9523 21.0637C29.102 19.2984 28.6947 19.0437 27.5913 19.0437C26.3861 19.0437 25.6222 19.5869 22.8384 22.4047C20.0715 25.1716 19.6471 25.7997 19.6471 27.0049C19.6471 28.0913 19.9017 28.5156 21.6671 30.3489C23.5174 32.2671 23.8059 32.8103 23.6871 34.2701C23.6022 35.2716 23.2967 35.7978 22.2952 36.5956C21.6501 37.1218 21.6501 37.1218 19.0021 37.2067C16.1333 37.3086 15.709 37.4274 14.8772 38.344C14.1303 39.1418 14.0454 39.702 14.0454 43.7929C14.0454 48.1385 14.1473 48.6647 15.0809 49.5134C15.9296 50.2773 16.6426 50.447 19.1039 50.447C21.4464 50.447 21.9727 50.5998 22.8214 51.4825C23.4834 52.1954 23.721 52.7895 23.721 53.7741C23.721 54.9453 23.3476 55.5734 21.6162 57.3727C19.9187 59.1211 19.6471 59.5625 19.6471 60.6488C19.6471 61.8541 20.0715 62.4821 22.8384 65.249C25.6222 68.0668 26.3861 68.61 27.5913 68.61C28.6947 68.61 29.119 68.3554 30.8504 66.6749C32.7007 64.8756 33.2609 64.5361 34.3133 64.5021C35.3997 64.4851 36.1805 64.8077 36.8765 65.5715C37.7252 66.5221 37.8101 66.8277 37.8101 69.1702C37.8101 71.6145 37.9798 72.3275 38.7437 73.1762C39.5924 74.1268 40.1187 74.2117 44.5321 74.2117C48.8607 74.2117 49.3529 74.1098 50.2526 73.0404C50.8976 72.2765 51.0504 71.5127 51.0504 69.1702C51.0504 66.8277 51.1692 66.4033 52.018 65.5206C52.7309 64.7907 53.4948 64.4851 54.5472 64.5021C55.5996 64.5361 56.1598 64.8756 58.0101 66.6749C59.7415 68.3554 60.1658 68.61 61.2692 68.61C62.4744 68.61 63.2383 68.0668 66.0221 65.249C68.789 62.4821 69.2134 61.8541 69.2134 60.6488C69.2134 59.5625 68.9418 59.1211 67.2443 57.3727C65.4959 55.5734 65.1394 54.9623 65.1394 53.7571C65.1394 52.7726 65.462 52.0257 66.1749 51.3467C67.0067 50.5658 67.482 50.447 69.7736 50.447C72.1161 50.447 72.8799 50.2942 73.6438 49.6492C74.7132 48.7495 74.8151 48.2573 74.8151 43.9287C74.8151 39.5153 74.7302 38.9891 73.7796 38.1403C72.9309 37.3765 72.2179 37.2067 69.7566 37.2067C67.4141 37.2067 66.8878 37.0539 66.0391 36.1713C65.3601 35.4413 65.1394 34.8642 65.1394 33.7439C65.1394 32.6235 65.4959 32.0464 67.431 30.0773C68.9588 28.5326 69.2134 28.0743 69.2134 26.9879C69.2134 25.7827 68.6702 25.0188 65.8524 22.235C63.0855 19.4681 62.4574 19.0437 61.2522 19.0437C60.1658 19.0437 59.7245 19.3153 57.9761 21.0128C57.0595 21.8955 56.041 22.7442 55.7015 22.88C54.3944 23.4232 53.0025 23.1346 52.018 22.1331C51.1692 21.2504 51.0504 20.8261 51.0504 18.4836C51.0504 17.3463 50.9655 16.1241 50.8637 15.7676C50.626 14.8849 49.6924 13.8834 48.8776 13.6458C48.0289 13.3911 40.6619 13.3911 39.9319 13.6458ZM48.1307 16.3787C48.2326 16.4975 48.3344 17.6688 48.3684 19.0437C48.4193 21.2674 48.4533 21.5899 48.8607 22.4387C49.3869 23.559 50.4733 24.6793 51.6445 25.2904C52.4084 25.7148 52.663 25.7488 54.3605 25.7488C56.0749 25.7488 56.2956 25.7148 57.1443 25.2735C57.6366 25.0019 58.7569 24.1022 59.6227 23.2704C60.4714 22.4387 61.2522 21.7597 61.3371 21.7597C61.5408 21.7597 66.4974 26.7163 66.4974 26.92C66.4974 27.0049 65.8184 27.7857 64.9867 28.6345C63.2892 30.3998 62.6611 31.4692 62.4405 32.963C62.067 35.7129 63.408 38.2591 65.8184 39.3965C66.6672 39.8038 66.9897 39.8378 69.2134 39.8887C70.5883 39.9227 71.7596 40.0245 71.8784 40.1264C72.184 40.381 72.184 47.2727 71.8784 47.5274C71.7596 47.6292 70.5883 47.7311 69.2134 47.765C66.9897 47.8159 66.6672 47.8499 65.8184 48.2573C63.408 49.3946 62.067 51.9408 62.4405 54.6907C62.6611 56.1845 63.2892 57.2539 64.9867 59.0193C65.8184 59.868 66.4974 60.6488 66.4974 60.7337C66.4974 60.9374 61.5408 65.894 61.3371 65.894C61.2522 65.894 60.4714 65.2151 59.6227 64.3833C58.7569 63.5515 57.6366 62.6519 57.1443 62.3803C56.2956 61.9389 56.0749 61.905 54.3605 61.905C52.663 61.905 52.4084 61.9389 51.6445 62.3633C50.4733 62.9744 49.3869 64.0947 48.8607 65.2151C48.4533 66.0638 48.4193 66.3863 48.3684 68.61C48.3344 69.985 48.2326 71.1562 48.1307 71.275C47.8761 71.5806 40.9844 71.5806 40.7298 71.275C40.6279 71.1562 40.5261 69.985 40.4921 68.61C40.4412 66.3693 40.4072 66.0638 39.9998 65.1981C38.5909 62.1766 34.8735 60.9035 31.7841 62.3463C31.3088 62.567 30.2563 63.3988 29.3227 64.3154C28.4061 65.1811 27.6083 65.894 27.5234 65.894C27.3197 65.894 22.3631 60.9204 22.3631 60.7337C22.3631 60.6488 23.0421 59.868 23.8738 59.0193C25.5713 57.2539 26.1994 56.1845 26.42 54.6907C26.7935 51.9408 25.4525 49.3946 23.0421 48.2573C22.1933 47.8499 21.8708 47.8159 19.6471 47.765C18.2722 47.7311 17.1009 47.6292 16.9821 47.5274C16.6765 47.2727 16.6765 40.381 16.9821 40.1264C17.1009 40.0245 18.2722 39.9227 19.6471 39.8887C21.8708 39.8378 22.1933 39.8038 23.0421 39.3965C25.4525 38.2591 26.7935 35.7129 26.42 32.963C26.1994 31.4692 25.5713 30.3998 23.8738 28.6345C23.0421 27.7857 22.3631 27.0049 22.3631 26.92C22.3631 26.7163 27.3197 21.7597 27.5234 21.7597C27.6083 21.7597 28.3891 22.4387 29.2378 23.2704C30.1036 24.1022 31.2239 25.0019 31.7162 25.2735C32.5649 25.7148 32.7856 25.7488 34.5 25.7488C36.1975 25.7488 36.4521 25.7148 37.216 25.2904C38.3872 24.6793 39.4736 23.559 39.9998 22.4387C40.4072 21.5899 40.4412 21.2674 40.4921 19.0437C40.5261 17.6688 40.6279 16.4975 40.7298 16.3787C40.8656 16.2089 41.7992 16.158 44.4302 16.158C47.0613 16.158 47.9949 16.2089 48.1307 16.3787Z" fill="#00999E"/>
<path d="M42.9036 28.8889C37.8281 29.3642 33.2449 32.5215 31.0043 37.1217C28.8824 41.4672 28.8824 46.1862 31.0043 50.5317C31.4626 51.4653 32.2774 52.7384 32.7866 53.3665C37.1491 58.6287 44.652 60.3092 50.8308 57.4065C56.1439 54.9112 59.3691 49.8358 59.403 43.9116C59.437 34.881 51.9681 28.0741 42.9036 28.8889ZM51.5607 37.8686C52.1887 38.3269 52.4773 39.2775 52.1718 39.9734C51.9172 40.5506 44.4992 49.3095 43.8202 49.8188C43.294 50.2262 42.3943 50.2601 41.8341 49.8867C41.0533 49.3774 36.9115 44.6585 36.7078 44.0304C36.1985 42.5875 37.7602 41.1617 39.237 41.7218C39.3898 41.7727 40.2046 42.6045 41.0533 43.5551C41.902 44.4887 42.6659 45.2695 42.7338 45.2695C42.8017 45.2695 44.2785 43.606 46.0269 41.569C48.0299 39.2435 49.4219 37.7667 49.7614 37.6139C50.3724 37.3423 50.9496 37.4272 51.5607 37.8686Z" fill="#00999E"/>
<path d="M5.06901 27.2594C3.25271 28.0063 2.01356 28.6174 1.80986 28.872C1.21574 29.6019 1.48734 30.5695 2.387 30.909C2.86229 31.0957 3.23574 31.0108 4.83137 30.3488C5.42548 30.1112 5.91775 29.9075 5.9517 29.9075C5.98565 29.9075 5.76498 30.7562 5.44246 31.7917C4.10145 36.256 3.60918 40.0753 3.74498 45.0829C3.84683 48.8852 4.18633 51.3126 5.13691 54.7585C7.46245 63.2289 12.8095 71.1391 19.6334 76.2316C20.7876 77.0973 21.6364 77.1821 22.1796 76.4862C22.9095 75.5695 22.7058 75.1961 20.6009 73.4647C14.0317 68.0497 9.5164 60.9713 7.53035 53.0101C6.64767 49.4963 6.51187 48.2402 6.49489 43.8268C6.49489 40.1942 6.54582 39.3794 6.90229 37.4612C7.29271 35.2206 8.29422 31.5201 8.56581 31.2485C8.65069 31.1636 8.95623 31.7238 9.29573 32.5555C9.92379 34.1172 10.45 34.6264 11.2648 34.4227C11.808 34.2869 12.3512 33.6589 12.3512 33.1836C12.3512 32.6234 9.99169 26.852 9.5843 26.3767C9.04111 25.7826 8.29422 25.9184 5.06901 27.2594Z" fill="#00999E"/>
<path d="M75.7205 65.8429C75.6017 65.8769 74.8717 66.6917 74.0739 67.6423C67.9121 75.1281 59.9 79.7792 50.2923 81.4597C49.0022 81.6804 47.6103 81.7483 44.436 81.7483C40.8034 81.7653 40.0056 81.7143 38.0705 81.3579C35.8298 80.9674 32.1293 79.9659 31.8577 79.6943C31.7728 79.6095 32.333 79.3039 33.1648 78.9644C34.3021 78.5061 34.6755 78.2685 34.8792 77.895C35.3206 77.0293 34.7264 75.909 33.8268 75.909C33.2327 75.909 27.4782 78.2515 27.0029 78.6759C26.7483 78.8965 26.6125 79.219 26.6125 79.5585C26.6125 80.3394 28.9211 85.9241 29.4303 86.3994C30.1602 87.0614 31.1618 86.8068 31.5182 85.8732C31.7049 85.3979 31.6201 85.0244 30.9581 83.4288C30.7204 82.8347 30.5167 82.3424 30.5167 82.3085C30.5167 82.2745 31.3654 82.4952 32.4009 82.8177C36.8653 84.1587 40.6846 84.651 45.6921 84.5152C49.4945 84.4133 51.9219 84.0738 55.3678 83.1232C63.7872 80.8147 71.5107 75.6204 76.705 68.7965C77.367 67.9478 77.5368 67.5744 77.5368 67.0651C77.5368 66.1145 76.6032 65.4865 75.7205 65.8429Z" fill="#00999E"/>
</g>
<defs>
<clipPath id="clip0_8234_4125">
<rect width="86.9107" height="86.9107" fill="white" transform="translate(0.983337 0.370361)"/>
</clipPath>
</defs>
</svg>
