<svg width="89" height="89" viewBox="0 0 89 89" fill="none" xmlns="http://www.w3.org/2000/svg">
<g clip-path="url(#clip0_8234_4117)">
<path d="M22.76 0.934944C20.4703 1.74407 18.6971 3.29346 17.6642 5.42818C16.8551 7.1153 16.7001 8.37202 16.769 12.7964C16.8206 17.1863 16.9239 17.5823 18.2323 18.5464C18.8521 18.994 18.9726 19.2178 19.2308 20.2163C19.6268 21.8001 20.5564 23.2806 22.0197 24.6751C23.2592 25.8457 23.2764 25.8802 23.2764 26.7237C23.2764 27.464 23.2248 27.5845 22.8977 27.6706C22.6739 27.7222 20.7458 28.1354 18.611 28.6174C14.1006 29.5987 13.1365 29.9258 11.7937 30.9243C9.36634 32.6975 8.02353 35.1593 7.83416 38.1031L7.73087 39.6009L6.49136 39.6698C4.15005 39.8247 1.9809 41.2708 0.93076 43.4055L0.465942 44.3696V57.6255V70.8814L1.05127 71.966C2.10141 73.8941 3.8746 75.168 6.00932 75.5296L6.73237 75.6501L6.78402 81.1935L6.83566 86.7541L7.26605 87.3738C7.48985 87.7181 7.9891 88.1485 8.33341 88.3551C8.93595 88.6994 9.2114 88.7166 11.5355 88.665C13.8768 88.6133 14.1006 88.5789 14.6515 88.2002C15.8049 87.3738 15.8738 87.0295 15.8738 80.9869V75.6156H23.4486H31.0234V80.5565C31.0234 85.4112 31.0406 85.5318 31.4366 86.3925C31.8842 87.3738 32.8827 88.2862 33.7779 88.5445C34.1738 88.6478 40.5263 88.6994 52.405 88.665L70.4124 88.6133L71.1526 88.0969C71.5658 87.8042 72.1339 87.2361 72.4266 86.8229L72.9431 86.0827L73.0291 80.7459L73.1152 75.4091L74.0276 75.0648C75.2327 74.6172 76.8337 73.1194 77.4191 71.9143C78.0388 70.5715 78.1938 69.1771 78.1938 64.219C78.1938 59.743 78.1077 59.0716 77.5396 58.6412C77.1436 58.3313 76.3001 58.3485 75.8697 58.6756C75.5426 58.9166 75.5254 59.1921 75.4393 64.3912C75.336 70.5887 75.3188 70.6576 73.8555 71.9143L73.1152 72.5341L73.0291 68.2646C72.9086 63.4099 72.8225 62.9967 71.3592 60.7759C69.6033 58.1075 68.1572 57.3673 62.149 56.0417L57.7074 55.0604V53.4938V51.9444L58.3271 51.5312C60.7029 49.913 62.872 45.9362 62.872 43.2161V42.3898H67.5718C71.7552 42.3898 72.3233 42.4242 72.9431 42.7169C73.8383 43.1301 74.458 43.7154 74.9573 44.645C75.336 45.3853 75.3532 45.5574 75.4049 50.3433L75.4737 55.3014L75.9041 55.6457C76.4894 56.1105 77.0403 56.0761 77.6257 55.5768L78.1077 55.1637L78.1593 51.0664C78.2282 46.4182 78.056 44.6106 77.4019 43.3022C76.7993 42.0627 75.577 40.892 74.2342 40.2551L73.1152 39.7214L68.1055 39.6698L63.0958 39.6181L63.0097 36.8636C62.9237 34.2124 62.9064 34.0919 62.3728 33.0074C61.512 31.2686 60.1175 30.3045 58 30.0119C57.2425 29.9086 56.5539 29.6676 56.0203 29.3405C54.6774 28.5141 54.2643 28.4453 50.9073 28.4453C47.4814 28.4453 46.6206 28.6002 45.0368 29.4782C44.4687 29.8053 44.0899 29.9086 43.9178 29.8225C43.6423 29.6503 42.5233 29.3749 38.5982 28.5141C34.0533 27.5328 34.4665 27.7222 34.4665 26.6893C34.4665 25.8285 34.4837 25.8113 35.8093 24.5029C37.2726 23.0568 38.1162 21.5935 38.4777 19.9236C38.581 19.4071 38.7359 18.9768 38.8048 18.9768C38.8736 18.9768 39.2524 18.7013 39.6139 18.357C40.8018 17.2896 40.8706 16.9453 40.8018 11.4708L40.7501 6.65048L40.182 5.51426C39.2868 3.68942 37.5825 2.51877 35.5338 2.3294C34.8108 2.26054 34.1566 2.01952 33.0893 1.4342L31.6259 0.642281L27.7525 0.590637C24.12 0.556206 23.8101 0.573418 22.76 0.934944ZM31.8153 3.94765C32.9343 4.6707 33.4508 4.84286 34.8624 5.03223C36.3258 5.20438 37.221 5.75528 37.7202 6.78821C38.0129 7.40796 38.0817 7.87278 38.0817 9.30167C38.0817 10.2657 38.0301 11.0576 37.9784 11.0576C37.9096 11.0576 37.4964 10.7133 37.0488 10.3002C35.8265 9.16394 34.9313 8.75077 33.6057 8.75077C32.59 8.75077 32.2973 8.85406 30.5069 9.71484C26.3408 11.7635 22.8977 12.366 20.1604 11.5397L19.4374 11.3331L19.5407 9.57711C19.6095 8.18266 19.7128 7.61455 20.0571 6.87428C20.6425 5.60033 21.727 4.4469 22.9149 3.87879C23.8101 3.43119 24.0683 3.39676 26.6335 3.31068C30.111 3.20739 30.7652 3.27625 31.8153 3.94765ZM34.0533 11.5741C34.3116 11.6774 34.9485 12.1594 35.4822 12.6587C36.0159 13.1579 36.825 13.7433 37.2726 13.9843C38.0645 14.3974 38.0817 14.4319 38.0817 15.2238C38.0817 15.8608 37.9957 16.0846 37.703 16.2911C37.4964 16.4461 37.1865 16.5666 37.0488 16.5666C36.4291 16.5666 36.1536 17.0142 35.9126 18.4431C35.5338 20.6122 34.828 21.8173 33.1237 23.1429C31.3849 24.5201 30.4553 24.8989 28.8715 24.9161C27.6492 24.9161 27.3565 24.8472 26.358 24.348C24.8258 23.6077 22.9666 21.869 22.364 20.6294C22.0886 20.0785 21.8303 19.1489 21.7443 18.4431C21.5721 17.1175 21.2278 16.5666 20.5736 16.5666C19.9194 16.5666 19.489 15.9813 19.489 15.1033V14.3286L20.4875 14.4491C24.2405 14.9483 27.8902 14.2081 32.0219 12.1078C33.5369 11.3159 33.4336 11.3503 34.0533 11.5741ZM28.7682 27.7566C29.3879 27.7566 30.3176 27.6361 30.8168 27.5156L31.712 27.2746V28.0665C31.712 29.3405 31.4193 30.0807 30.6791 30.7349C29.5945 31.7162 28.114 31.8023 27.0638 30.9071C26.2891 30.2529 26.0309 29.6331 26.0309 28.3764V27.2746L26.84 27.5156C27.2704 27.6534 28.1484 27.7566 28.7682 27.7566ZM24.998 32.818C26.1858 33.8854 27.0811 34.2124 28.8715 34.2124C30.2143 34.2124 30.5414 34.1436 31.2816 33.7476C32.349 33.1795 33.4852 32.0261 33.8984 31.0964L34.2083 30.3906L38.1678 31.2514C40.3542 31.7334 42.1446 32.1294 42.179 32.1466C42.1962 32.1638 42.0069 32.6458 41.7486 33.1967C41.301 34.1436 41.2666 34.3846 41.215 36.9153L41.1461 39.6353H30.0249H18.9037L18.5078 40.0141C17.9396 40.5477 17.9569 41.5634 18.5594 42.0283C19.007 42.3898 19.1447 42.3898 30.0938 42.3898H41.1805V43.1301C41.1805 44.2146 41.7831 46.3838 42.3856 47.52C43.1259 48.9317 44.3137 50.3778 45.3983 51.2213L46.3452 51.9444V53.511V55.0604L41.9208 56.0417C38.4605 56.7991 37.2037 57.1435 36.2397 57.6255C33.9328 58.7617 31.9702 61.2407 31.2816 63.8403C31.0923 64.5977 31.0234 65.8028 31.0234 68.85V72.8612H18.7832C9.9861 72.8612 6.33642 72.8095 5.8716 72.6546C4.97639 72.3964 3.85739 71.3979 3.46143 70.5543C3.16877 69.8829 3.13434 69.1254 3.13434 57.5738C3.13434 45.8157 3.15156 45.282 3.46143 44.6622C3.6508 44.3179 4.04676 43.7842 4.37385 43.4744C5.424 42.4587 5.78552 42.3898 10.3476 42.3898C13.0504 42.3898 14.6343 42.3209 14.9097 42.2004C15.7705 41.8045 15.891 40.4272 15.1335 39.8936C14.8581 39.7042 14.2383 39.6353 12.6201 39.6353H10.4853L10.5714 38.3442C10.7264 35.9684 12.293 33.6099 14.3933 32.5942C14.7892 32.3876 16.9756 31.8195 19.248 31.303L23.3625 30.3906L23.8273 31.2858C24.0683 31.7678 24.602 32.4565 24.998 32.818ZM54.8668 31.9056C55.7792 32.4048 56.4334 32.6286 57.1393 32.6975C58.4476 32.8352 59.2912 33.2656 59.7904 34.0747C60.2036 34.7117 60.2036 34.7978 60.1864 39.2049C60.1864 43.4055 60.152 43.7498 59.7904 44.8C58.7919 47.6405 56.8982 49.5859 54.2471 50.4811C53.3519 50.7909 52.8698 50.8426 51.6475 50.7909C50.3564 50.7221 49.9948 50.636 48.807 50.0507C46.5862 48.9489 44.9507 46.9691 44.2104 44.4729C43.9866 43.7326 43.935 42.6825 43.935 39.4632C43.935 34.5568 44.0211 34.1952 45.4672 32.7319C46.8272 31.3719 47.3437 31.2342 50.7868 31.217L53.5929 31.1997L54.8668 31.9056ZM52.0263 53.4938C53.0248 53.4938 54.0921 53.4421 54.402 53.3733L54.9529 53.2355V54.0102V54.7849H52.0263H49.0996V53.993V53.2011L49.6677 53.356C49.9604 53.4249 51.0278 53.4938 52.0263 53.4938ZM60.8062 58.5723C63.6983 59.2093 65.8847 59.7946 66.4528 60.0529C67.744 60.6898 68.9835 61.9638 69.6377 63.341L70.1886 64.5117L70.2402 68.2819L70.2919 72.052L69.3795 71.2257C68.2088 70.1756 67.0726 69.5214 65.3682 68.936L63.991 68.4712H52.1123H40.2337L38.9425 68.8672C37.307 69.3836 35.7921 70.21 34.6559 71.2429L33.7607 72.052L33.8123 68.2819L33.8639 64.4945L34.4321 63.341C35.1207 61.9294 36.3602 60.6554 37.5997 60.0529C38.1334 59.7946 40.3714 59.2093 43.0742 58.6068L47.6363 57.5738L51.8541 57.5566L56.0547 57.5394L60.8062 58.5723ZM63.6467 71.3979C65.351 71.7594 66.5905 72.4308 67.7956 73.6359C68.9146 74.7377 69.5516 75.805 69.9992 77.32C70.3263 78.4562 70.3952 84.6882 70.0853 85.2907C69.6377 86.1343 69.8959 86.1171 52.0263 86.1171C34.1566 86.1171 34.4148 86.1343 33.9672 85.2907C33.6574 84.7226 33.7262 78.6628 34.0361 77.4233C34.4321 75.9427 35.1035 74.8065 36.2741 73.6359C37.4448 72.4824 38.7876 71.7422 40.3886 71.3979C42.0069 71.0363 61.9768 71.0535 63.6467 71.3979ZM13.1193 80.7631C13.1193 85.2907 13.0849 85.9277 12.8439 86.0138C12.3446 86.2032 9.93445 86.1343 9.71065 85.9105C9.55571 85.7556 9.50406 84.3611 9.50406 80.6598V75.6156H11.3117H13.1193V80.7631Z" fill="#00999E"/>
<path d="M60.4767 1.00389C59.4782 1.50314 58.6863 2.45 58.3764 3.46571C58.2732 3.86166 58.2215 6.44398 58.2559 10.7306L58.3076 17.3758L58.824 18.2194C59.1511 18.7358 59.6676 19.2523 60.1841 19.5794L61.0276 20.0958L65.8996 20.1819C72.0627 20.2852 71.5291 19.9581 71.6496 23.7972L71.7356 26.5516L72.3038 27.1025C72.803 27.6018 72.9752 27.6707 73.8015 27.6707C74.9722 27.6707 74.9549 27.6879 78.0365 23.6594C79.3105 21.9895 80.55 20.509 80.791 20.4057C81.0492 20.268 81.9616 20.1819 83.1667 20.1819C84.2341 20.1819 85.4219 20.0958 85.7835 19.9753C86.6787 19.7171 87.7288 18.8047 88.1592 17.8923C88.5035 17.1692 88.5207 16.8938 88.5207 10.4035C88.5207 5.11839 88.4691 3.51735 88.2969 3.08697C87.9182 2.19176 87.1263 1.39985 86.1966 0.969463L85.3359 0.556293H73.3539H61.3892L60.4767 1.00389ZM85.3359 3.74115L85.7663 4.15433V10.3691V16.5839L85.3359 16.9971C84.9399 17.4102 84.8194 17.4275 82.9601 17.4275C80.7566 17.4275 79.5343 17.7029 78.7079 18.3915C78.4152 18.6497 77.3479 19.9409 76.3322 21.2665L74.4901 23.6767L74.3868 22.0584C74.2835 20.2164 73.9392 19.3556 72.9579 18.4948C71.8906 17.548 71.0642 17.4275 66.1923 17.4275H61.8195L61.4064 16.9971L60.976 16.5839V10.4035V4.22319L61.4064 3.75837L61.8195 3.31077H73.3711H84.9227L85.3359 3.74115Z" fill="#00999E"/>
</g>
<defs>
<clipPath id="clip0_8234_4117">
<rect width="88.1432" height="88.1432" fill="#00999E" transform="translate(0.375183 0.556885)"/>
</clipPath>
</defs>
</svg>
